<mxfile host="app.diagrams.net" modified="2023-06-16T18:49:45.799Z" agent="Mozilla/5.0 (Windows NT 10.0; Win64; x64) AppleWebKit/537.36 (KHTML, like Gecko) Chrome/114.0.0.0 Safari/537.36" version="21.4.0" etag="8Mz4C5IteGN1qZdJBvcq" type="github">
  <diagram name="PÃ¡gina-1" id="ajY9_iDmrcPVvUdt_vDN">
    <mxGraphModel>
      <root>
        <mxCell id="0" />
        <mxCell id="1" parent="0" />
      </root>
    </mxGraphModel>
  </diagram>
</mxfile>
